<svg xmlns="http://www.w3.org/2000/svg" xmlns:xlink="http://www.w3.org/1999/xlink" width="131.668" height="46.121" viewBox="0 0 131.668 46.121">
  <defs>
    <clipPath id="clip-path">
      <rect width="131.668" height="46.121" fill="none"/>
    </clipPath>
    <linearGradient id="linear-gradient" x1="0.5" x2="0.5" y2="1" gradientUnits="objectBoundingBox">
      <stop offset="0" stop-color="#ed213a"/>
      <stop offset="1" stop-color="#11998e"/>
    </linearGradient>
  </defs>
  <g id="Componente_3_1" data-name="Componente 3 – 1" transform="translate(0 0)" clip-path="url(#clip-path)">
    <path id="Caminho_20" data-name="Caminho 20" d="M3.934,41.274a6.589,6.589,0,0,0,6.417,4.862,6.752,6.752,0,0,0,1.287-.123l13.309-2.552,10.239-2.247a6.483,6.483,0,0,0,5.293-7.129L39.229,24.5c-.156-1.193,2.578-2.515,5.128-2.9A142.04,142.04,0,0,1,89,21.489c4.065.7,4.963,1.353,5.157,1.6a4.878,4.878,0,0,1,.169,3.171l-.9,6.369a7.784,7.784,0,0,0,.991,6.024,9.519,9.519,0,0,0,6.048,2.936c1.537.294,2.721.591,3.9.878,1.256.312,2.51.624,4.144.936l11.906,2.3a9.3,9.3,0,0,0,6.275-.365,8.08,8.08,0,0,0,3.67-6.057l.073-.318c.231-1.015.536-2.021.841-3.026a23.535,23.535,0,0,0,1.388-7.515,17.608,17.608,0,0,0-5.816-11.748C111.645,1.742,85.343.016,66.895.016,24.778.016,8.731,12.139,2.684,22.31a12.135,12.135,0,0,0-1.265,9.332ZM6.458,24.559c5.464-9.2,20.385-20.15,60.438-20.15,17.686,0,42.826,1.6,56.882,15.393a13.308,13.308,0,0,1,4.489,8.734,19.9,19.9,0,0,1-1.2,6.123c-.332,1.1-.659,2.207-.918,3.321l-.077.334c-.367,1.634-.659,2.734-1.412,3.127a6.085,6.085,0,0,1-3.409-.062l-11.9-2.271c-1.537-.294-2.726-.591-3.909-.878-1.256-.312-2.51-.624-4.14-.936-1.052-.2-2.816-.538-3.376-1.278a4.248,4.248,0,0,1-.141-2.758l.9-6.369a8.477,8.477,0,0,0-.922-6.305c-1.419-2.021-4.689-2.829-8.008-3.4a146.458,146.458,0,0,0-46.046.1c-4.805.729-9.4,3.426-8.826,7.812l1.252,9.58a2.11,2.11,0,0,1-1.821,2.262L24.069,39.162,10.813,41.7a2.238,2.238,0,0,1-2.635-1.537L5.671,30.544A7.781,7.781,0,0,1,6.458,24.559Z" transform="translate(-1 -0.016)" fill="url(#linear-gradient)"/>
  </g>
</svg>
