<svg xmlns="http://www.w3.org/2000/svg" xmlns:xlink="http://www.w3.org/1999/xlink" width="131.773" height="94.437" viewBox="0 0 131.773 94.437">
  <defs>
    <clipPath id="clip-path">
      <rect width="131.773" height="94.437" fill="none"/>
    </clipPath>
    <linearGradient id="linear-gradient" x1="0.5" x2="0.5" y2="1" gradientUnits="objectBoundingBox">
      <stop offset="0" stop-color="#ed213a"/>
      <stop offset="1" stop-color="#11998e"/>
    </linearGradient>
  </defs>
  <g id="Componente_2_1" data-name="Componente 2 – 1" transform="translate(0 0)" clip-path="url(#clip-path)">
    <path id="Caminho_13" data-name="Caminho 13" d="M132.412,208.008c-.022-.057-.044-.112-.068-.162a6.709,6.709,0,0,0-.819-1.537l-27.916-37.885a8.821,8.821,0,0,0-7.074-3.573h-5.71l-1.941-15.534a4.392,4.392,0,0,0-4.393-4.232H77.9a4.392,4.392,0,0,0-4.393,4.393v17.57a2.2,2.2,0,1,0,4.392,0v-17.57H84.49a1.888,1.888,0,0,0,.017.272l2.2,17.57a2.2,2.2,0,0,0,2.179,1.924h7.652a4.408,4.408,0,0,1,3.536,1.786l26.194,35.55H108.648a2.2,2.2,0,1,0,0,4.392h19.766v17.57a6.589,6.589,0,0,1-6.589,6.589H12.015a6.589,6.589,0,0,1-6.589-6.589v-17.57H97.668a2.2,2.2,0,1,0,0-4.392H7.577l26.194-35.55a4.408,4.408,0,0,1,3.536-1.786h7.652a2.2,2.2,0,0,0,2.179-1.924l2.2-17.57a1.89,1.89,0,0,0,.018-.272h6.589v17.57a2.2,2.2,0,0,0,2.2,2.2H66.92a2.2,2.2,0,0,0,0-4.392H60.332V149.477a4.392,4.392,0,0,0-4.393-4.393H49.35a4.393,4.393,0,0,0-4.393,4.232L43.019,164.85h-5.71a8.82,8.82,0,0,0-7.065,3.573L2.317,206.31a6.536,6.536,0,0,0-.819,1.537c-.024.048-.046.1-.068.158a6.608,6.608,0,0,0-.4,2.212V228.54a10.994,10.994,0,0,0,10.981,10.981H121.826a10.994,10.994,0,0,0,10.981-10.981V210.217A6.59,6.59,0,0,0,132.412,208.008Z" transform="translate(-1.034 -145.084)" fill="url(#linear-gradient)"/>
    <path id="Caminho_14" data-name="Caminho 14" d="M172.844,263.692a25.236,25.236,0,0,1,6.422-2.374,36.954,36.954,0,0,1,16.1,0,2.2,2.2,0,1,0,.995-4.278,41.423,41.423,0,0,0-18.093,0,29.637,29.637,0,0,0-7.542,2.8,17.089,17.089,0,0,0-5.39,4.428,9.444,9.444,0,0,0,0,12.079,17.085,17.085,0,0,0,5.39,4.428,29.659,29.659,0,0,0,7.542,2.8,41.182,41.182,0,0,0,18.093,0,29.636,29.636,0,0,0,7.542-2.8,17.089,17.089,0,0,0,5.39-4.428,9.444,9.444,0,0,0,0-12.079,2.2,2.2,0,1,0-3.481,2.677,5.089,5.089,0,0,1,0,6.725,12.937,12.937,0,0,1-4.023,3.255,25.235,25.235,0,0,1-6.422,2.374,36.954,36.954,0,0,1-16.1,0,25.178,25.178,0,0,1-6.42-2.374,12.929,12.929,0,0,1-4.026-3.255,5.089,5.089,0,0,1,0-6.725A12.946,12.946,0,0,1,172.844,263.692Z" transform="translate(-121.43 -227.483)" fill="url(#linear-gradient)"/>
  </g>
</svg>
